<svg width="41" height="40" viewBox="0 0 41 40" fill="none" xmlns="http://www.w3.org/2000/svg">
<path fill-rule="evenodd" clip-rule="evenodd" d="M20.6841 40C31.7298 40 40.6841 31.0457 40.6841 20C40.6841 8.95431 31.7298 0 20.6841 0C9.63837 0 0.684082 8.95431 0.684082 20C0.684082 31.0457 9.63837 40 20.6841 40ZM26.9234 9.31684C27.2271 8.23805 26.1802 7.60013 25.2241 8.2813L11.8772 17.7896C10.8403 18.5283 11.0034 20 12.1222 20H15.6368V19.9728H22.4866L16.9053 21.9421L14.4448 30.6832C14.1411 31.762 15.1879 32.3999 16.1441 31.7187L29.491 22.2105C30.5279 21.4718 30.3647 20 29.246 20H23.9162L26.9234 9.31684Z" fill="#4640DE"/>
</svg>
