<svg width="199" height="40" viewBox="0 0 199 40" fill="none" xmlns="http://www.w3.org/2000/svg">
<path fill-rule="evenodd" clip-rule="evenodd" d="M20.6841 40C31.7298 40 40.6841 31.0457 40.6841 20C40.6841 8.95431 31.7298 0 20.6841 0C9.63837 0 0.684082 8.95431 0.684082 20C0.684082 31.0457 9.63837 40 20.6841 40ZM26.9234 9.31684C27.2271 8.23805 26.1802 7.60013 25.2241 8.2813L11.8772 17.7896C10.8403 18.5283 11.0034 20 12.1222 20H15.6368V19.9728H22.4866L16.9053 21.9421L14.4448 30.6832C14.1411 31.762 15.1879 32.3999 16.1441 31.7187L29.491 22.2105C30.5279 21.4718 30.3647 20 29.246 20H23.9162L26.9234 9.31684Z" fill="#4640DE"/>
<path d="M62.02 22.26V27H58.08V12.84H63.96C65.6667 12.84 66.9667 13.2733 67.86 14.14C68.7667 14.9933 69.22 16.14 69.22 17.58C69.22 18.4733 69.02 19.2733 68.62 19.98C68.22 20.6867 67.62 21.2467 66.82 21.66C66.0333 22.06 65.08 22.26 63.96 22.26H62.02ZM63.52 19.16C64.6667 19.16 65.24 18.6333 65.24 17.58C65.24 16.54 64.6667 16.02 63.52 16.02H62.02V19.16H63.52ZM76.0558 15.64C77.1758 15.64 78.1758 15.8733 79.0558 16.34C79.9491 16.7933 80.6491 17.46 81.1558 18.34C81.6624 19.2067 81.9158 20.22 81.9158 21.38C81.9158 22.5533 81.6624 23.5733 81.1558 24.44C80.6491 25.3067 79.9491 25.9733 79.0558 26.44C78.1758 26.9067 77.1758 27.14 76.0558 27.14C74.9358 27.14 73.9291 26.9067 73.0358 26.44C72.1424 25.9733 71.4424 25.3067 70.9358 24.44C70.4291 23.5733 70.1758 22.5533 70.1758 21.38C70.1758 20.2067 70.4291 19.1867 70.9358 18.32C71.4424 17.4533 72.1424 16.7933 73.0358 16.34C73.9291 15.8733 74.9358 15.64 76.0558 15.64ZM76.0558 19.04C75.5091 19.04 75.0558 19.24 74.6958 19.64C74.3358 20.04 74.1558 20.62 74.1558 21.38C74.1558 22.1533 74.3358 22.74 74.6958 23.14C75.0558 23.54 75.5091 23.74 76.0558 23.74C76.5891 23.74 77.0358 23.54 77.3958 23.14C77.7558 22.7267 77.9358 22.14 77.9358 21.38C77.9358 20.62 77.7558 20.04 77.3958 19.64C77.0358 19.24 76.5891 19.04 76.0558 19.04ZM100.23 15.78L97.4502 27H93.0502L91.3502 20.02L89.6102 27H85.1902L82.4502 15.78H86.3502L87.5702 23.28L89.3302 15.78H93.5102L95.3502 23.34L96.5902 15.78H100.23ZM112.083 21.18C112.083 21.46 112.049 21.7667 111.983 22.1H104.563C104.629 23.3667 105.183 24 106.223 24C106.609 24 106.929 23.9067 107.183 23.72C107.436 23.5333 107.609 23.2867 107.703 22.98H111.863C111.716 23.7667 111.389 24.48 110.883 25.12C110.376 25.7467 109.736 26.24 108.963 26.6C108.189 26.96 107.343 27.14 106.423 27.14C105.303 27.14 104.309 26.9133 103.443 26.46C102.589 25.9933 101.923 25.3267 101.443 24.46C100.963 23.58 100.723 22.5533 100.723 21.38C100.723 20.2067 100.963 19.1867 101.443 18.32C101.923 17.4533 102.596 16.7933 103.463 16.34C104.329 15.8733 105.316 15.64 106.423 15.64C107.543 15.64 108.529 15.8667 109.383 16.32C110.236 16.7733 110.896 17.42 111.363 18.26C111.843 19.1 112.083 20.0733 112.083 21.18ZM108.083 20.46C108.096 19.8867 107.943 19.4533 107.623 19.16C107.303 18.8667 106.903 18.72 106.423 18.72C105.903 18.72 105.476 18.8667 105.143 19.16C104.823 19.4533 104.636 19.8867 104.583 20.46H108.083ZM117.606 17.88C118.046 17.2133 118.599 16.68 119.266 16.28C119.933 15.88 120.639 15.68 121.386 15.68V19.88H120.246C119.366 19.88 118.706 20.0533 118.266 20.4C117.826 20.7333 117.606 21.32 117.606 22.16V27H113.666V15.78H117.606V17.88ZM135.349 12.84V27H131.429V21.28H126.629V27H122.689V12.84H126.629V18.14H131.429V12.84H135.349ZM149.053 15.78V27H145.133V25.12C144.813 25.72 144.346 26.2 143.733 26.56C143.12 26.92 142.4 27.1 141.573 27.1C140.28 27.1 139.26 26.6733 138.513 25.82C137.78 24.9533 137.413 23.7733 137.413 22.28V15.78H141.333V21.8C141.333 22.44 141.5 22.9467 141.833 23.32C142.18 23.68 142.64 23.86 143.213 23.86C143.8 23.86 144.266 23.6733 144.613 23.3C144.96 22.9267 145.133 22.4 145.133 21.72V15.78H149.053ZM165.985 15.68C167.398 15.68 168.498 16.1067 169.285 16.96C170.085 17.8133 170.485 18.9867 170.485 20.48V27H166.565V20.98C166.565 20.38 166.398 19.9133 166.065 19.58C165.731 19.2467 165.285 19.08 164.725 19.08C164.138 19.08 163.671 19.2533 163.325 19.6C162.991 19.9333 162.825 20.4133 162.825 21.04V27H158.905V20.98C158.905 20.38 158.738 19.9133 158.405 19.58C158.071 19.2467 157.625 19.08 157.065 19.08C156.478 19.08 156.011 19.2533 155.665 19.6C155.331 19.9333 155.165 20.4133 155.165 21.04V27H151.225V15.78H155.165V17.5C155.485 16.94 155.931 16.5 156.505 16.18C157.078 15.8467 157.751 15.68 158.525 15.68C159.365 15.68 160.105 15.8667 160.745 16.24C161.385 16.6133 161.885 17.1467 162.245 17.84C162.631 17.1867 163.151 16.6667 163.805 16.28C164.458 15.88 165.185 15.68 165.985 15.68ZM176.732 15.64C177.519 15.64 178.199 15.8133 178.772 16.16C179.359 16.4933 179.792 16.96 180.072 17.56V15.78H183.992V27H180.072V25.22C179.792 25.82 179.359 26.2933 178.772 26.64C178.199 26.9733 177.519 27.14 176.732 27.14C175.839 27.14 175.032 26.9133 174.312 26.46C173.592 25.9933 173.026 25.3267 172.612 24.46C172.199 23.58 171.992 22.5533 171.992 21.38C171.992 20.2067 172.199 19.1867 172.612 18.32C173.026 17.4533 173.592 16.7933 174.312 16.34C175.032 15.8733 175.839 15.64 176.732 15.64ZM178.032 19.08C177.419 19.08 176.919 19.2867 176.532 19.7C176.159 20.1 175.972 20.66 175.972 21.38C175.972 22.1133 176.159 22.6867 176.532 23.1C176.919 23.5 177.419 23.7 178.032 23.7C178.619 23.7 179.106 23.4933 179.492 23.08C179.879 22.6667 180.072 22.1 180.072 21.38C180.072 20.6733 179.879 20.1133 179.492 19.7C179.106 19.2867 178.619 19.08 178.032 19.08ZM193.646 15.68C194.94 15.68 195.953 16.1133 196.686 16.98C197.42 17.8333 197.786 19 197.786 20.48V27H193.886V20.98C193.886 20.3267 193.713 19.82 193.366 19.46C193.033 19.0867 192.58 18.9 192.006 18.9C191.42 18.9 190.953 19.0933 190.606 19.48C190.26 19.8533 190.086 20.3733 190.086 21.04V27H186.146V15.78H190.086V17.66C190.406 17.06 190.873 16.58 191.486 16.22C192.1 15.86 192.82 15.68 193.646 15.68Z" fill="#121F3E"/>
</svg>
