<svg width="70" height="70" viewBox="0 0 70 70" fill="none" xmlns="http://www.w3.org/2000/svg">
<circle cx="35" cy="35" r="35" fill="#FFDDED"/>
<path d="M34.9998 49.5833C43.054 49.5833 49.5832 43.0541 49.5832 35C49.5832 26.9458 43.054 20.4166 34.9998 20.4166C26.9457 20.4166 20.4165 26.9458 20.4165 35C20.4165 43.0541 26.9457 49.5833 34.9998 49.5833Z" stroke="#D87AA7" stroke-width="3.11111" stroke-linecap="round" stroke-linejoin="round"/>
<path d="M35 43.75C39.8325 43.75 43.75 39.8325 43.75 35C43.75 30.1675 39.8325 26.25 35 26.25C30.1675 26.25 26.25 30.1675 26.25 35C26.25 39.8325 30.1675 43.75 35 43.75Z" stroke="#D87AA7" stroke-width="3.11111" stroke-linecap="round" stroke-linejoin="round"/>
<path d="M35.0002 37.9167C36.611 37.9167 37.9168 36.6109 37.9168 35C37.9168 33.3892 36.611 32.0834 35.0002 32.0834C33.3893 32.0834 32.0835 33.3892 32.0835 35C32.0835 36.6109 33.3893 37.9167 35.0002 37.9167Z" stroke="#D87AA7" stroke-width="3.11111" stroke-linecap="round" stroke-linejoin="round"/>
</svg>
