<svg width="70" height="70" viewBox="0 0 70 70" fill="none" xmlns="http://www.w3.org/2000/svg">
<circle cx="35" cy="35" r="35" fill="#ECE9FF"/>
<path d="M48.125 40.8335V29.1668C48.1245 28.6553 47.9895 28.153 47.7335 27.7102C47.4775 27.2674 47.1096 26.8996 46.6667 26.6439L36.4583 20.8106C36.0149 20.5546 35.512 20.4198 35 20.4198C34.488 20.4198 33.9851 20.5546 33.5417 20.8106L23.3333 26.6439C22.8904 26.8996 22.5225 27.2674 22.2665 27.7102C22.0105 28.153 21.8755 28.6553 21.875 29.1668V40.8335C21.8755 41.3449 22.0105 41.8473 22.2665 42.2901C22.5225 42.7329 22.8904 43.1007 23.3333 43.3564L33.5417 49.1897C33.9851 49.4457 34.488 49.5805 35 49.5805C35.512 49.5805 36.0149 49.4457 36.4583 49.1897L46.6667 43.3564C47.1096 43.1007 47.4775 42.7329 47.7335 42.2901C47.9895 41.8473 48.1245 41.3449 48.125 40.8335Z" stroke="#877AD8" stroke-width="3.11111" stroke-linecap="round" stroke-linejoin="round"/>
<path d="M22.269 27.6499L35.0003 35.0145L47.7315 27.6499" stroke="#877AD8" stroke-width="3.11111" stroke-linecap="round" stroke-linejoin="round"/>
<path d="M35 49.7V35" stroke="#877AD8" stroke-width="3.11111" stroke-linecap="round" stroke-linejoin="round"/>
</svg>
